ModelForces
version=1
nRows=19
nColumns=15
inDegrees=no

This file contains the forces exerted on a model during a simulation.

A force is a generalized force, meaning that it can be either a force (N) or a torque (Nm).

Units are S.I. units (second, meters, Newtons, ...)
Angles are in degrees.

endheader
time	Liu	Thelen	contactForce.block.force.X	contactForce.block.force.Y	contactForce.block.force.Z	contactForce.block.torque.X	contactForce.block.torque.Y	contactForce.block.torque.Z	contactForce.ground.force.X	contactForce.ground.force.Y	contactForce.ground.force.Z	contactForce.ground.torque.X	contactForce.ground.torque.Y	contactForce.ground.torque.Z
      0.00000000	 100926.47575758	      2.00000000	      0.00000000	      0.00000000	      0.00000000	      0.00000000	      0.00000000	      0.00000000	      0.00000000	      0.00000000	      0.00000000	      0.00000000	      0.00000000	      0.00000000
      0.00121536	  97085.02154648	    214.42957092	     -0.00000000	      7.18401107	      1.79599296	     -0.08978675	     -0.00000000	      0.00000000	      0.00000000	     -7.18401107	     -1.79599296	     -0.02659711	      0.00000000	     -0.00000000
      0.00207892	  89836.49324947	   1173.69178690	     -0.00000000	     20.69358455	      5.17338595	     -0.25856226	     -0.00000000	      0.00000000	      0.00000000	    -20.69358455	     -5.17338595	     -0.22117622	      0.00000000	     -0.00000000
      0.00269991	  82478.28925188	    821.33455928	     -0.00000000	     34.33962712	      8.58489617	     -0.42895008	     -0.00000000	      0.00000000	      0.00000000	    -34.33962712	     -8.58489617	     -0.61054984	      0.00000000	     -0.00000000
      0.00332090	  73496.81460059	   1585.35618514	     -0.00000000	     50.90642579	     12.72659530	     -0.63568209	     -0.00000000	      0.00000000	      0.00000000	    -50.90642579	    -12.72659530	     -1.34575171	      0.00000000	     -0.00000000
      0.00394189	  63072.38621459	   1266.10642449	     -0.00000000	     70.00466183	     17.50115361	     -0.87383292	     -0.00000000	      0.00000000	      0.00000000	    -70.00466183	    -17.50115361	     -2.55394588	      0.00000000	     -0.00000000
      0.00456288	  51420.40447277	   1926.59454439	     -0.00000000	     91.20557856	     22.80138190	     -1.13799022	     -0.00000000	      0.00000000	      0.00000000	    -91.20557856	    -22.80138190	     -4.35162866	      0.00000000	     -0.00000000
      0.00518387	  38773.65537165	   1532.70232322	     -0.00000000	    114.06493350	     28.51621949	     -1.42255951	     -0.00000000	      0.00000000	      0.00000000	   -114.06493350	    -28.51621949	     -6.83258434	      0.00000000	     -0.00000000
      0.00580486	  25390.42106911	   2069.34165406	     -0.00000000	    138.14334336	     34.53582048	     -1.72202201	     -0.00000000	      0.00000000	      0.00000000	   -138.14334336	    -34.53582048	    -10.05671918	      0.00000000	     -0.00000000
      0.00642585	  11536.04860693	   1550.04409134	     -0.00000000	    163.03441166	     40.75858563	     -2.03128692	     -0.00000000	      0.00000000	      0.00000000	   -163.03441166	    -40.75858563	    -14.04566865	      0.00000000	     -0.00000000
      0.00695895	    303.02677678	   2023.08008950	     -0.00000000	    184.78024013	     46.19504063	     -2.30121960	     -0.00000000	      0.00000000	      0.00000000	   -184.78024013	    -46.19504063	    -18.06611876	      0.00000000	     -0.00000000
      0.00749206	      3.81217704	   1785.53472660	     -0.00000000	    206.65140477	     51.66282939	     -2.57246964	     -0.00000000	      0.00000000	      0.00000000	   -206.65140477	    -51.66282939	    -22.60585751	      0.00000000	     -0.00000000
      0.00815616	      3.52344214	   2168.95128758	     -0.00000000	    233.63123895	     58.40778495	     -2.90674884	     -0.00000000	      0.00000000	      0.00000000	   -233.63123895	    -58.40778495	    -28.93010018	      0.00000000	     -0.00000000
      0.00872075	      3.27861504	   1456.92710768	     -0.00000000	    255.92252208	     63.98060322	     -3.18266242	     -0.00000000	      0.00000000	      0.00000000	   -255.92252208	    -63.98060322	    -34.82323626	      0.00000000	     -0.00000000
      0.00928534	      3.03443832	   2351.85788819	     -0.00000000	    277.24089430	     69.31019387	     -3.44630112	     -0.00000000	      0.00000000	      0.00000000	   -277.24089430	    -69.31019387	    -41.10881880	      0.00000000	     -0.00000000
      0.00984993	      2.79084751	   1425.47656643	     -0.00000000	    297.24768858	     74.31189010	     -3.69351299	     -0.00000000	      0.00000000	      0.00000000	   -297.24768858	    -74.31189010	    -47.69575204	      0.00000000	     -0.00000000
      0.01041452	      2.54795869	   2647.75482958	     -0.00000000	    315.61983041	     78.90492342	     -3.92034991	     -0.00000000	      0.00000000	      0.00000000	   -315.61983041	    -78.90492342	    -54.47675800	      0.00000000	     -0.00000000
      0.01097911	      2.30569772	   1463.57655990	     -0.00000000	    332.06652860	     83.01659595	     -4.12327028	     -0.00000000	      0.00000000	      0.00000000	   -332.06652860	    -83.01659595	    -61.33786548	      0.00000000	     -0.00000000
      0.01146858	      2.09631574	   2744.46772229	     -0.00000000	    344.55842552	     86.13956864	     -4.27730537	     -0.00000000	      0.00000000	      0.00000000	   -344.55842552	    -86.13956864	    -67.25256016	      0.00000000	     -0.00000000
